# xmcd
#
# Track frame offsets: 
#        150
#        37843
#        66032
#        102017
#        134041
#        144580
#        176770
#        230280
#
# Disc length: 3525 seconds
#
# Revision: 2
# Processed by: cddbd v1.5.2PL0 Copyright (c) Steve Scherf et al.
# Submitted via: ExactAudioCopy v1.0b3
#
DISCID=690dc308
DTITLE=Ray Anderson - Sweet Chicago suite
DYEAR=2010
DGENRE=Jazz
TTITLE0=Chicago greys
TTITLE1=High school
TTITLE2=Magnificent Mistifiyo
TTITLE3=Going to Maxwell Street
TTITLE4=Get to it
TTITLE5=Some day
TTITLE6=The stingray rag
TTITLE7=Next March
EXTD=YEAR: 2010
EXTT0=
EXTT1=
EXTT2=
EXTT3=
EXTT4=
EXTT5=
EXTT6=
EXTT7=
PLAYORDER=
